<svg width="30" height="30" viewBox="0 0 30 30" fill="none" xmlns="http://www.w3.org/2000/svg">
<g clip-path="url(#clip0_88_5)">
<path d="M20.77 28.94C20.586 28.9797 20.3983 28.9998 20.21 29H3.8C3.05739 29 2.3452 28.705 1.8201 28.1799C1.295 27.6548 1 26.9426 1 26.2V3.8C1 3.05739 1.295 2.3452 1.8201 1.8201C2.3452 1.295 3.05739 1 3.8 1H15V9H23V14.38" stroke="url(#paint0_linear_88_5)" stroke-width="2" stroke-linecap="round" stroke-linejoin="round"/>
<path d="M21.65 28.9998C25.7093 28.9998 29 25.7091 29 21.6498C29 17.5905 25.7093 14.2998 21.65 14.2998C17.5908 14.2998 14.3 17.5905 14.3 21.6498C14.3 25.7091 17.5908 28.9998 21.65 28.9998Z" stroke="url(#paint1_linear_88_5)" stroke-width="2" stroke-linecap="round" stroke-linejoin="round"/>
<path d="M14.96 1L23 9.04" stroke="url(#paint2_linear_88_5)" stroke-width="2" stroke-linecap="round" stroke-linejoin="round"/>
<path d="M18.5701 21.3498L21.2001 24.5198L24.7201 18.7798" stroke="url(#paint3_linear_88_5)" stroke-width="2" stroke-linecap="round" stroke-linejoin="round"/>
</g>
<defs>
<linearGradient id="paint0_linear_88_5" x1="12" y1="-4.78966e-08" x2="12" y2="30" gradientUnits="userSpaceOnUse">
<stop stop-color="#00F8FF"/>
<stop offset="1" stop-color="#0BF99B"/>
</linearGradient>
<linearGradient id="paint1_linear_88_5" x1="21.65" y1="13.2998" x2="21.65" y2="-0.000195646" gradientUnits="userSpaceOnUse">
<stop stop-color="#00F8FF"/>
<stop offset="1" stop-color="#0BF99B"/>
</linearGradient>
<linearGradient id="paint2_linear_88_5" x1="18.98" y1="-3.24712e-08" x2="18.98" y2="10.04" gradientUnits="userSpaceOnUse">
<stop stop-color="#00F8FF"/>
<stop offset="1" stop-color="#0BF99B"/>
</linearGradient>
<linearGradient id="paint3_linear_88_5" x1="21.6501" y1="17.7798" x2="21.6501" y2="25.5198" gradientUnits="userSpaceOnUse">
<stop stop-color="#00F8FF"/>
<stop offset="1" stop-color="#0BF99B"/>
</linearGradient>
<clipPath id="clip0_88_5">
<rect width="30" height="30" fill="white"/>
</clipPath>
</defs>
</svg>
