<svg width="21" height="20" viewBox="0 0 21 20" fill="none" xmlns="http://www.w3.org/2000/svg">
<path d="M8.5415 11.5L9.88317 12.5417C10.0582 12.7167 10.4498 12.7999 10.7082 12.7999H12.3582C12.8748 12.7999 13.4415 12.4083 13.5748 11.8916L14.6165 8.73326C14.8332 8.12493 14.4415 7.60828 13.7915 7.60828H12.0582C11.7998 7.60828 11.5832 7.39162 11.6248 7.09162L11.8415 5.70826C11.9248 5.31659 11.6665 4.88324 11.2748 4.75824C10.9248 4.62491 10.4915 4.7999 10.3248 5.05823L8.54985 7.69993" stroke="#5B6674" stroke-width="2" stroke-miterlimit="10"/>
<path d="M6.33301 11.5003V7.25858C6.33301 6.65025 6.59134 6.43359 7.19967 6.43359H7.63301C8.24134 6.43359 8.49968 6.65025 8.49968 7.25858V11.5003C8.49968 12.1086 8.24134 12.3253 7.63301 12.3253H7.19967C6.59134 12.3253 6.33301 12.1086 6.33301 11.5003Z" stroke="#5B6674" stroke-width="2" stroke-linecap="round" stroke-linejoin="round"/>
<path d="M3 4.14147C3 2.77481 4.11667 1.6665 5.5 1.6665H15.5C16.8833 1.6665 18 2.77481 18 4.14147V13.2332C18 14.5999 16.8833 15.7082 15.5 15.7082H14.8667C14.2 15.7082 13.5667 15.9665 13.1 16.4332L11.675 17.8416C11.025 18.4832 9.96667 18.4832 9.31667 17.8416L7.89166 16.4332C7.425 15.9665 6.78333 15.7082 6.125 15.7082H5.5C4.11667 15.7082 3 14.5999 3 13.2332V7.55812" stroke="#5B6674" stroke-width="2" stroke-miterlimit="10" stroke-linecap="round" stroke-linejoin="round"/>
</svg>
